<?xml version="1.0" encoding="UTF-8" standalone="no"?>
<!DOCTYPE svg PUBLIC "-//W3C//DTD SVG 1.1//EN" "http://www.w3.org/Graphics/SVG/1.1/DTD/svg11.dtd">
<svg width="100%" height="100%" viewBox="0 0 888 82" version="1.1" xmlns="http://www.w3.org/2000/svg" xmlns:xlink="http://www.w3.org/1999/xlink" xml:space="preserve" xmlns:serif="http://www.serif.com/" style="fill-rule:evenodd;clip-rule:evenodd;stroke-linejoin:round;stroke-miterlimit:2;">
    <g transform="matrix(2.312306,0,0,2.312306,-1907.845728,-774.573728)">
        <g transform="matrix(50,0,0,50,818,370)">
            <path d="M0.142,-0L0.142,-0.7L0.312,-0.7L0.312,-0.15L0.713,-0.15L0.713,-0L0.142,-0Z" style="fill:currentColor;fill-rule:nonzero;"/>
        </g>
        <g transform="matrix(50,0,0,50,856.987982,370)">
            <path d="M0.48,0.006C0.412,0.006 0.352,-0.008 0.3,-0.035C0.248,-0.063 0.208,-0.1 0.179,-0.148C0.15,-0.196 0.135,-0.25 0.135,-0.311L0.135,-0.7L0.307,-0.7L0.307,-0.317C0.307,-0.284 0.314,-0.254 0.329,-0.228C0.345,-0.202 0.365,-0.182 0.392,-0.167C0.418,-0.152 0.447,-0.145 0.48,-0.145C0.514,-0.145 0.544,-0.152 0.571,-0.167C0.598,-0.182 0.619,-0.202 0.635,-0.228C0.65,-0.254 0.658,-0.284 0.658,-0.317L0.658,-0.7L0.824,-0.7L0.824,-0.311C0.824,-0.25 0.809,-0.196 0.78,-0.148C0.751,-0.1 0.711,-0.063 0.66,-0.035C0.608,-0.008 0.548,0.006 0.48,0.006Z" style="fill:currentColor;fill-rule:nonzero;"/>
        </g>
        <g transform="matrix(50,0,0,50,905.000995,370)">
            <path d="M0.142,-0L0.142,-0.7L0.294,-0.7L0.59,-0.298L0.489,-0.298L0.786,-0.7L0.936,-0.7L0.936,-0L0.771,-0L0.771,-0.224C0.771,-0.281 0.772,-0.334 0.775,-0.383C0.777,-0.431 0.783,-0.48 0.791,-0.529L0.808,-0.475L0.571,-0.17L0.505,-0.17L0.268,-0.475L0.287,-0.529C0.294,-0.481 0.3,-0.433 0.303,-0.385C0.306,-0.336 0.307,-0.283 0.307,-0.224L0.307,-0L0.142,-0Z" style="fill:currentColor;fill-rule:nonzero;"/>
        </g>
        <g transform="matrix(50,0,0,50,958.889911,370)">
            <path d="M0.142,-0L0.142,-0.7L0.719,-0.7L0.719,-0.555L0.306,-0.555L0.306,-0.145L0.729,-0.145L0.729,-0L0.142,-0ZM0.228,-0.287L0.228,-0.425L0.674,-0.425L0.674,-0.287L0.228,-0.287Z" style="fill:currentColor;fill-rule:nonzero;"/>
        </g>
        <g transform="matrix(50,0,0,50,1001.039972,370)">
            <path d="M0.142,-0L0.142,-0.7L0.3,-0.7L0.757,-0.2L0.73,-0.205C0.727,-0.229 0.724,-0.252 0.722,-0.275C0.719,-0.297 0.717,-0.318 0.716,-0.338C0.715,-0.359 0.714,-0.379 0.713,-0.399C0.712,-0.419 0.711,-0.44 0.71,-0.461C0.71,-0.482 0.71,-0.504 0.71,-0.527L0.71,-0.7L0.875,-0.7L0.875,-0L0.715,-0L0.242,-0.516L0.287,-0.509C0.289,-0.491 0.292,-0.474 0.293,-0.458C0.295,-0.442 0.297,-0.426 0.299,-0.409C0.301,-0.393 0.302,-0.376 0.303,-0.358C0.304,-0.34 0.305,-0.321 0.306,-0.301C0.307,-0.281 0.307,-0.258 0.307,-0.234L0.307,-0L0.142,-0Z" style="fill:currentColor;fill-rule:nonzero;"/>
        </g>
        <g transform="matrix(50,0,0,50,1051.878888,370)">
            <path d="M0.142,-0L0.142,-0.7L0.312,-0.7L0.312,-0L0.142,-0ZM0.213,-0.262L0.213,-0.404L0.66,-0.404L0.66,-0.262L0.213,-0.262ZM0.222,-0.55L0.222,-0.7L0.701,-0.7L0.701,-0.55L0.222,-0.55Z" style="fill:currentColor;fill-rule:nonzero;"/>
        </g>
        <g transform="matrix(50,0,0,50,1089.182623,370)">
            <path d="M0.042,-0L0.364,-0.7L0.519,-0.7L0.839,-0L0.664,-0L0.484,-0.393C0.478,-0.408 0.472,-0.422 0.466,-0.437C0.46,-0.451 0.454,-0.465 0.449,-0.478C0.444,-0.492 0.438,-0.506 0.434,-0.52C0.429,-0.534 0.425,-0.548 0.421,-0.561L0.457,-0.562C0.452,-0.547 0.448,-0.533 0.443,-0.519C0.438,-0.505 0.433,-0.491 0.427,-0.477C0.422,-0.463 0.416,-0.449 0.41,-0.435C0.404,-0.422 0.398,-0.407 0.392,-0.392L0.212,-0L0.042,-0ZM0.192,-0.128L0.247,-0.257L0.631,-0.257L0.665,-0.128L0.192,-0.128Z" style="fill:currentColor;fill-rule:nonzero;"/>
        </g>
        <g transform="matrix(50,0,0,50,1133.245575,370)">
            <path d="M0.142,-0L0.142,-0.7L0.312,-0.7L0.312,-0.15L0.713,-0.15L0.713,-0L0.142,-0Z" style="fill:currentColor;fill-rule:nonzero;"/>
        </g>
        <g transform="matrix(50,0,0,50,1173.233557,370)">
            <path d="M0.142,-0L0.142,-0.7L0.312,-0.7L0.312,-0.15L0.713,-0.15L0.713,-0L0.142,-0Z" style="fill:currentColor;fill-rule:nonzero;"/>
        </g>
    </g>
</svg>
